<svg xmlns="http://www.w3.org/2000/svg" fill="none" viewBox="0 0 24 24" strokeWidth={1.5} stroke="currentColor" className="w-6 h-6">
  <path strokeLinecap="round" strokeLinejoin="round" d="M12 6.042A8.733 8.733 0 0 0 7.5 3c-2.906 0-5.544 1.259-7.371 3.241a1.125 1.125 0 0 0 0 1.615c1.827 1.983 4.465 3.24 7.371 3.24s5.544-1.257 7.371-3.24a1.125 1.125 0 0 0 0-1.615C17.544 7.301 14.906 6.042 12 6.042ZM12 14.25c-2.906 0-5.544 1.259-7.371 3.241a1.125 1.125 0 0 0 0 1.615c1.827 1.983 4.465 3.24 7.371 3.24s5.544-1.257 7.371-3.24a1.125 1.125 0 0 0 0-1.615C17.544 15.509 14.906 14.25 12 14.25Z" />
</svg>
